<svg width="126" height="38" viewBox="0 0 126 38" fill="none" xmlns="http://www.w3.org/2000/svg">
  <path fill-rule="evenodd" clip-rule="evenodd" d="M43.132 37.18c-.54-1.42-1.94-4.08-2.66-5.7-.86-1.9-1.78-3.76-2.66-5.66-1.78-3.82-3.6-7.54-5.38-11.28-.94-2-2.02-3.68-1.8-6.46.14-1.64.76-3.32 1.8-4.48.34-.38.64-.78.94-1.1.52-.5 2.24-1.72 1.04-2.28-.72-.34-2.98-.2-3.88-.14-2.44.16-4.82.62-6.88 1.46-2.02.82-3.7 2.18-4.66 3.72-2.12 3.32-.66 6.18.56 9.74.18.54.36 1.04.54 1.58.22.62 1.72 3.46 2.08 4.12.48.9 1 1.84 1.42 2.74.92 1.86 2.02 3.62 3.02 5.32 1.02 1.74 1.92 3.58 3.48 4.84 1.86 1.52 2.88 2.18 5.52 2.82 1.28.3 2.12.58 3.52.62 1.22.04 2.82.2 4 .14m-42.8-1.6c-.14.24-.5.54-.24.78.22.22 1.96.12 2.42.12 1.96 0 2.94.06 4.74-.48 1.34-.38 2.52-.96 3.58-1.58 1.94-1.14 4.08-3.22 5.16-5.2.48-.88 1.32-2.82 1.5-3.72.7-3.7-.32-7.6-1.6-11-.12-.34-.22-.6-.34-.92-.1-.24-.26-.7-.4-.88zm112.41-29.454c-2.84.5-1.9 4.46.62 4.02 1.04-.18 1.9-1.06 1.68-2.32-.16-1.04-1.08-1.9-2.3-1.7M43.826 23.38h3.78l1.18-3.44 5.84-.02c-.06-1.06-.36-1.68-.92-2.48-.16-.22-.38-.4-.56-.62h-3.14c-.06-.82 2.18-5.64 2.52-6.86l1.3 3.34c.54 1.42 3.52 9.32 3.72 10.08h3.96l-6.36-16.46c.38-.34.62-.54.38-1.16-1.12.04-2.3.18-3.4.26-.76.06-.96-.02-1.42.42-1.32 1.18-2.28 4.4-2.96 6.2-.44 1.16-3.62 9.64-3.92 10.74m48.54 0h3.78l1.18-3.44 5.86-.02c-.12-1.54-.64-2.1-1.5-3.1h-3.14c-.04-.84 2.18-5.62 2.54-6.86.22.26 1.18 3.04 1.28 3.34.56 1.48 3.5 9.28 3.72 10.08h3.96l-6.36-16.46c.38-.34.62-.54.38-1.16-1.12.04-2.28.16-3.4.26-.76.06-.96-.02-1.42.42-1.32 1.18-2.28 4.4-2.96 6.2-.48 1.26-3.58 9.54-3.92 10.74m-18.84.12h3.32l.02-5.22c.36.08 1 .94 1.26 1.26.38.5.76.88 1.16 1.38.7.84 1.74 1.98 2.3 2.74l4.56-.16c-.08-.22-.14-.24-.28-.4-.2-.18-.22-.22-.36-.42l-2.2-2.46c-.5-.62-2.72-2.92-2.9-3.36l4.88-5.06c.26-.28.52-.4.7-.74-1.16-.02-2.34 0-3.52 0-1.3-.02-.68-.08-1.68.9-.28.28-3.68 3.94-3.92 4.08-.02-1.3.12-9.5-.06-10.04-.76-.08-1.72-.1-2.26.28-.34.24-1 1.02-1.04 1.58-.1 1.58 0 3.6 0 5.22 0 .8-.06 9.88.02 10.42m-7-9.08-.02-2.02c-1.48-.2-1.96.1-2.58.9-.4.52-.3.72-.3 1.48v9.02l2.88-.14c.08-1.88 0-3.96 0-5.84-.02-2.22 1.86-3 3.88-2.6.4.08.34.14.52-.14.46-.7.78-2.42-.88-2.88-1.22-.36-2.26.54-2.9 1.34-.24.3-.4.64-.6.88m53.84-.36-.02-2c-1.5-.22-1.96.1-2.58.9-.42.52-.3.7-.3 1.46v9.04l2.86-.16c.06-1.46-.08-5.52.02-6.4.12-.88.76-1.56 1.42-1.84.98-.46 1.8-.28 2.86-.14.32-.6.62-1.16.38-2.1-.28-1.08-2.22-1.9-4.12.44-.2.26-.34.58-.52.8m-9.12 9.26h3.26V11.18c-1.56 0-2.1 0-2.82 1-.62.86-.44 2.04-.44 3.44z" fill="#fff"/>
  <path d="m64.92 29.903 1.008-2.96h.82l1.008 2.96h-.647l-.188-.58h-1.16l-.193.58zm1.013-1.116h.816l-.408-1.236zm2.174 1.116v-2.12h.608v.304h.02a.65.65 0 0 1 .292-.284q.12-.06.304-.06.248 0 .404.116.156.112.228.292a1 1 0 0 1 .072.372v1.38h-.608v-1.276a.45.45 0 0 0-.084-.268q-.08-.116-.26-.116a.34.34 0 0 0-.216.064.36.36 0 0 0-.116.164.6.6 0 0 0-.036.212v1.22zm2.476.78a1.5 1.5 0 0 1-.236-.016v-.488l.052.004q.057.004.136.004a.8.8 0 0 0 .316-.056.47.47 0 0 0 .216-.208l-.784-2.14h.608l.492 1.436.48-1.436h.612l-.76 2.036q-.104.292-.252.484a.9.9 0 0 1-.356.284 1.3 1.3 0 0 1-.524.096m2.755-.78-.656-2.12h.608l.38 1.376.412-1.376h.552l.412 1.376.38-1.376h.608l-.656 2.12h-.644l-.376-1.24-.376 1.24zm3.059 0v-3.04h.608v1.224h.02a.65.65 0 0 1 .292-.284q.12-.06.304-.06.248 0 .404.116.156.112.228.292a1 1 0 0 1 .072.372v1.38h-.608v-1.276a.45.45 0 0 0-.084-.268q-.08-.116-.26-.116a.34.34 0 0 0-.216.064.36.36 0 0 0-.116.164.6.6 0 0 0-.036.212v1.22zm3.426.04q-.28 0-.484-.092a1 1 0 0 1-.336-.252 1.15 1.15 0 0 1-.264-.76q0-.2.06-.392.065-.195.192-.356a.9.9 0 0 1 .332-.252q.204-.096.48-.096.292 0 .516.128a.9.9 0 0 1 .356.38q.128.249.128.604v.148h-1.452a.55.55 0 0 0 .132.332.43.43 0 0 0 .34.14q.125 0 .2-.036a.4.4 0 0 0 .124-.088.4.4 0 0 0 .06-.092l.016-.04h.56l-.02.076a.9.9 0 0 1-.512.576 1.1 1.1 0 0 1-.428.072m-.472-1.308h.868q-.012-.22-.132-.328a.43.43 0 0 0-.296-.108.42.42 0 0 0-.3.116.46.46 0 0 0-.14.32m1.889 1.268v-2.12h.604v.308h.02a.7.7 0 0 1 .1-.164.5.5 0 0 1 .176-.132.7.7 0 0 1 .288-.052q.087 0 .14.012l.052.008v.6l-.06-.012a.7.7 0 0 0-.148-.012q-.285 0-.424.156-.14.152-.14.5v.908zm2.68.04q-.279 0-.483-.092a1 1 0 0 1-.336-.252 1.15 1.15 0 0 1-.264-.76q0-.2.06-.392.063-.195.192-.356a.9.9 0 0 1 .332-.252q.204-.096.48-.096.291 0 .516.128a.9.9 0 0 1 .356.38q.128.249.128.604v.148h-1.452a.55.55 0 0 0 .132.332.43.43 0 0 0 .34.14q.123 0 .2-.036a.4.4 0 0 0 .124-.088.4.4 0 0 0 .06-.092l.016-.04h.56l-.02.076a.9.9 0 0 1-.512.576 1.1 1.1 0 0 1-.428.072m-.471-1.308h.868q-.012-.22-.132-.328a.43.43 0 0 0-.296-.108.42.42 0 0 0-.3.116.46.46 0 0 0-.14.32m1.995 1.848.328-.544a.35.35 0 0 1-.228-.108.33.33 0 0 1-.088-.232q0-.147.1-.244a.34.34 0 0 1 .248-.096q.149 0 .252.096.105.096.104.26a.5.5 0 0 1-.044.2q-.043.105-.144.252a9 9 0 0 1-.252.372l-.028.044zm2.085-.58 1.008-2.96h.82l1.008 2.96h-.648l-.188-.58h-1.16l-.192.58zm1.012-1.116h.816l-.408-1.236zm2.174 1.116v-2.12h.608v.304h.02a.65.65 0 0 1 .292-.284q.12-.06.304-.06.249 0 .404.116.156.112.228.292a1 1 0 0 1 .072.372v1.38h-.608v-1.276a.45.45 0 0 0-.084-.268q-.08-.116-.26-.116a.34.34 0 0 0-.216.064.36.36 0 0 0-.116.164.6.6 0 0 0-.036.212v1.22zm2.477.78a1.5 1.5 0 0 1-.236-.016v-.488l.052.004q.056.004.136.004a.8.8 0 0 0 .316-.056.47.47 0 0 0 .216-.208l-.784-2.14h.608l.492 1.436.48-1.436h.612l-.76 2.036q-.104.292-.252.484a.9.9 0 0 1-.356.284 1.3 1.3 0 0 1-.524.096m3.257-.74a.9.9 0 0 1-.396-.072.59.59 0 0 1-.324-.432 1.3 1.3 0 0 1-.024-.236v-.936h-.36v-.484h.36v-.524h.608v.524h.452v.484h-.452v.92q0 .132.068.204.072.072.236.072a1 1 0 0 0 .132-.012l.06-.012v.468l-.108.016q-.108.02-.252.02m1.126-2.448a.34.34 0 0 1-.36-.344q0-.147.1-.248a.35.35 0 0 1 .26-.104q.153 0 .256.104a.33.33 0 0 1 .104.248.33.33 0 0 1-.104.244.36.36 0 0 1-.256.1m-.304 2.408v-2.12h.608v2.12zm1.128 0v-2.12h.608v.288h.02a.8.8 0 0 1 .204-.22.58.58 0 0 1 .372-.108.61.61 0 0 1 .6.388h.008a1 1 0 0 1 .136-.18.7.7 0 0 1 .216-.148.7.7 0 0 1 .308-.06q.22 0 .364.1a.6.6 0 0 1 .212.264.8.8 0 0 1 .072.344v1.452h-.608v-1.3a.4.4 0 0 0-.08-.256q-.076-.104-.232-.104-.12 0-.196.06a.4.4 0 0 0-.108.156.6.6 0 0 0-.032.192v1.252h-.608v-1.3a.4.4 0 0 0-.08-.256q-.076-.104-.232-.104-.12 0-.196.06a.4.4 0 0 0-.108.156.6.6 0 0 0-.032.192v1.252zm4.618.04a1.2 1.2 0 0 1-.484-.092 1 1 0 0 1-.336-.252 1.16 1.16 0 0 1-.264-.76q0-.2.06-.392.065-.195.192-.356a.9.9 0 0 1 .332-.252q.204-.096.48-.096.293 0 .516.128a.9.9 0 0 1 .356.38q.129.249.128.604v.148h-1.452a.55.55 0 0 0 .132.332q.124.14.34.14.125 0 .2-.036a.4.4 0 0 0 .124-.088.3.3 0 0 0 .06-.092l.016-.04h.56l-.02.076a.88.88 0 0 1-.512.576 1.1 1.1 0 0 1-.428.072m-.472-1.308h.868q-.012-.22-.132-.328a.43.43 0 0 0-.296-.108.43.43 0 0 0-.3.116.46.46 0 0 0-.14.32" fill="#fff"/>
</svg>
