<svg width="66" height="57" viewBox="0 0 66 57" fill="none" xmlns="http://www.w3.org/2000/svg">
  <path fill-rule="evenodd" clip-rule="evenodd" d="M66 56.98c-.826-2.177-2.969-6.253-4.07-8.736-1.316-2.912-2.724-5.762-4.07-8.674-2.724-5.854-5.51-11.555-8.233-17.287-1.439-3.065-3.091-5.64-2.754-9.9.214-2.513 1.163-5.088 2.754-6.866.52-.582.98-1.195 1.438-1.686.796-.766 3.428-2.636 1.592-3.494-1.102-.52-4.56-.306-5.937-.214-3.734.245-7.376.95-10.528 2.237-3.091 1.257-5.662 3.341-7.13 5.701-3.245 5.088-1.01 9.471.856 14.927.276.828.55 1.594.826 2.421.337.95 2.632 5.303 3.183 6.314.735 1.38 1.53 2.82 2.173 4.2 1.408 2.85 3.091 5.547 4.621 8.153 1.561 2.666 2.938 5.486 5.325 7.417 2.846 2.33 4.407 3.341 8.447 4.322 1.959.46 3.244.889 5.386.95 1.867.061 4.315.307 6.12.215M.508 54.528c-.214.367-.765.827-.367 1.195.336.337 2.999.184 3.703.184 2.999 0 4.498.092 7.253-.736 2.05-.582 3.856-1.47 5.478-2.421 2.968-1.747 6.243-4.935 7.896-7.97.734-1.348 2.02-4.321 2.295-5.7 1.071-5.67-.49-11.647-2.448-16.858-.184-.521-.337-.92-.52-1.41-.154-.368-.398-1.073-.613-1.349z" fill="#928aaf"/>
</svg>
