<svg width="100" height="100" viewBox="0 0 100 100" fill="none" xmlns="http://www.w3.org/2000/svg">
  <g clip-path="url(#a)">
    <path d="M52.206 99.86h-4.412a5.08 5.08 0 0 1-5.082-5.081V73.183h14.576v21.596a5.08 5.08 0 0 1-5.082 5.082" fill="url(#b)"/>
    <path d="m42.712 79.659 14.576 14.576V73.183H42.712z" fill="url(#c)"/>
    <path d="M59.828 79.658h-24.89a4.484 4.484 0 0 1-4.484-4.484V69.91h33.858v5.264a4.484 4.484 0 0 1-4.484 4.484" fill="url(#d)"/>
    <path d="M89.245 74.257H52.587a5.194 5.194 0 0 1-5.194-5.193V39.147c0-12.991 10.532-23.523 23.523-23.523s23.523 10.532 23.523 23.523v29.917a5.194 5.194 0 0 1-5.194 5.193" fill="url(#e)"/>
    <path d="M23.523 15.624C10.532 15.624 0 26.156 0 39.147v29.917a5.194 5.194 0 0 0 5.194 5.194h65.722V15.624z" fill="url(#f)"/>
    <path d="M89.245 74.257H52.587a5.194 5.194 0 0 1-5.194-5.193V39.147c0-12.991 10.532-23.523 23.523-23.523s23.523 10.532 23.523 23.523v29.917a5.194 5.194 0 0 1-5.194 5.193" fill="url(#g)"/>
    <path d="M0 57.222v11.842a5.194 5.194 0 0 0 5.194 5.193h84.052a5.194 5.194 0 0 0 5.193-5.193V57.222z" fill="url(#h)"/>
    <path d="m51.441 63.683.02 1.655 8.92 8.92h28.864a5.194 5.194 0 0 0 5.194-5.194v-5.381z" fill="url(#i)"/>
    <path d="M94.44 39.147v29.918a5.193 5.193 0 0 1-5.195 5.192H69.833L33.377 37.802a6.82 6.82 0 0 1 1.988-11.831V15.623h35.55c12.993 0 23.524 10.532 23.524 23.524" fill="url(#j)"/>
    <path d="M86.446 69.91h-31.06a3.924 3.924 0 0 1-3.924-3.924V38.743c0-9.817 7.958-17.774 17.774-17.774h3.36c9.817 0 17.774 7.958 17.774 17.774v27.243a3.924 3.924 0 0 1-3.924 3.924" fill="url(#k)"/>
    <path d="M90.37 63.683H51.462v1.655l4.572 4.572h30.412a3.924 3.924 0 0 0 3.924-3.924z" fill="url(#l)"/>
    <path d="M100 29.26v32.422a3.656 3.656 0 0 1-3.655 3.656H51.46V38.742c0-5.206 2.238-9.887 5.805-13.138h39.079A3.655 3.655 0 0 1 100 29.26" fill="url(#m)"/>
    <path d="M68.546 40.378 51.461 57.463v7.875h44.884c1.01 0 1.923-.41 2.585-1.071L75.04 40.378a4.593 4.593 0 0 0-6.495 0" fill="url(#n)"/>
    <path d="m52.077 34.094 16.47 16.47a4.593 4.593 0 0 0 6.494 0L98.93 26.675a3.64 3.64 0 0 0-2.585-1.071H57.266a17.76 17.76 0 0 0-5.19 8.49" fill="url(#o)"/>
    <path d="M51.461 57.883v7.454h44.884A3.656 3.656 0 0 0 100 61.682v-3.8z" fill="url(#p)"/>
    <path d="M36.365 10.242H26.007c-.77 0-1.16-.925-.624-1.477l2.353-2.417a.87.87 0 0 0 0-1.213l-2.353-2.418c-.536-.551-.145-1.476.624-1.476h10.358z" fill="url(#q)"/>
    <path d="M37.57 33.088a2.205 2.205 0 0 1-2.205-2.205V2.343a2.205 2.205 0 0 1 4.41 0v28.54a2.205 2.205 0 0 1-2.205 2.205" fill="url(#r)"/>
    <path d="M37.57 39.244a6.82 6.82 0 1 0 0-13.64 6.82 6.82 0 0 0 0 13.64" fill="url(#s)"/>
    <path d="M37.57 36.444a4.02 4.02 0 1 0 0-8.04 4.02 4.02 0 0 0 0 8.04" fill="url(#t)"/>
  </g>
  <defs>
    <linearGradient id="b" x1="44.159" y1="86.522" x2="54.945" y2="86.522" gradientUnits="userSpaceOnUse">
      <stop stop-color="#f8f6fb"/>
      <stop offset="1" stop-color="#efdcfb"/>
    </linearGradient>
    <linearGradient id="c" x1="52.492" y1="88.605" x2="49.551" y2="74.226" gradientUnits="userSpaceOnUse">
      <stop stop-color="#efdcfb" stop-opacity="0"/>
      <stop offset=".486" stop-color="#baaad6" stop-opacity=".486"/>
      <stop offset="1" stop-color="#8679b2"/>
    </linearGradient>
    <linearGradient id="d" x1="47.383" y1="73.251" x2="47.383" y2="78.978" gradientUnits="userSpaceOnUse">
      <stop stop-color="#ff7044"/>
      <stop offset="1" stop-color="#f82814"/>
    </linearGradient>
    <linearGradient id="e" x1="47.393" y1="44.941" x2="94.439" y2="44.941" gradientUnits="userSpaceOnUse">
      <stop stop-color="#ffd945"/>
      <stop offset=".304" stop-color="#ffcd3e"/>
      <stop offset=".856" stop-color="#ffad2b"/>
      <stop offset="1" stop-color="#ffa325"/>
    </linearGradient>
    <linearGradient id="f" x1="31.614" y1="28.616" x2="44.699" y2="76.54" gradientUnits="userSpaceOnUse">
      <stop stop-color="#ff7044"/>
      <stop offset="1" stop-color="#f82814"/>
    </linearGradient>
    <linearGradient id="g" x1="78.251" y1="49.529" x2="40.223" y2="37.998" gradientUnits="userSpaceOnUse">
      <stop stop-color="#ff7044"/>
      <stop offset="1" stop-color="#f82814"/>
    </linearGradient>
    <linearGradient id="h" x1="47.22" y1="66.219" x2="47.22" y2="76.033" gradientUnits="userSpaceOnUse">
      <stop stop-color="#f82814" stop-opacity="0"/>
      <stop offset=".625" stop-color="#d22725" stop-opacity=".625"/>
      <stop offset="1" stop-color="#c0272d"/>
    </linearGradient>
    <linearGradient id="i" x1="73.325" y1="75.387" x2="72.998" y2="65.901" gradientUnits="userSpaceOnUse">
      <stop stop-color="#f82814" stop-opacity="0"/>
      <stop offset=".625" stop-color="#d22725" stop-opacity=".625"/>
      <stop offset="1" stop-color="#c0272d"/>
    </linearGradient>
    <linearGradient id="j" x1="64.546" y1="39.91" x2="19.579" y2="14.55" gradientUnits="userSpaceOnUse">
      <stop stop-color="#f82814" stop-opacity="0"/>
      <stop offset=".625" stop-color="#d22725" stop-opacity=".625"/>
      <stop offset="1" stop-color="#c0272d"/>
    </linearGradient>
    <linearGradient id="k" x1="98.315" y1="69.228" x2="64.948" y2="44.449" gradientUnits="userSpaceOnUse">
      <stop stop-color="#8a7889"/>
      <stop offset="1" stop-color="#6e566e"/>
    </linearGradient>
    <linearGradient id="l" x1="88.403" y1="78.086" x2="66.883" y2="62.103" gradientUnits="userSpaceOnUse">
      <stop stop-color="#6e566e" stop-opacity="0"/>
      <stop offset=".294" stop-color="#674d66" stop-opacity=".294"/>
      <stop offset="1" stop-color="#593b56"/>
    </linearGradient>
    <linearGradient id="m" x1="75.731" y1="42.175" x2="75.731" y2="65.853" gradientUnits="userSpaceOnUse">
      <stop stop-color="#ffd945"/>
      <stop offset=".304" stop-color="#ffcd3e"/>
      <stop offset=".856" stop-color="#ffad2b"/>
      <stop offset="1" stop-color="#ffa325"/>
    </linearGradient>
    <linearGradient id="n" x1="74.655" y1="52.263" x2="75.269" y2="66.493" gradientUnits="userSpaceOnUse">
      <stop stop-color="#ffd945"/>
      <stop offset=".304" stop-color="#ffcd3e"/>
      <stop offset=".856" stop-color="#ffad2b"/>
      <stop offset="1" stop-color="#ffa325"/>
    </linearGradient>
    <linearGradient id="o" x1="74.858" y1="28.044" x2="83.445" y2="59.203" gradientUnits="userSpaceOnUse">
      <stop stop-color="#ffd945"/>
      <stop offset=".304" stop-color="#ffcd3e"/>
      <stop offset=".856" stop-color="#ffad2b"/>
      <stop offset="1" stop-color="#ffa325"/>
    </linearGradient>
    <linearGradient id="p" x1="75.731" y1="60.657" x2="75.731" y2="65.646" gradientUnits="userSpaceOnUse">
      <stop stop-color="#e87264" stop-opacity="0"/>
      <stop offset=".652" stop-color="#f67150" stop-opacity=".652"/>
      <stop offset="1" stop-color="#ff7044"/>
    </linearGradient>
    <linearGradient id="q" x1="29.164" y1="1.856" x2="33.086" y2="10.614" gradientUnits="userSpaceOnUse">
      <stop stop-color="#ffd945"/>
      <stop offset=".304" stop-color="#ffcd3e"/>
      <stop offset=".856" stop-color="#ffad2b"/>
      <stop offset="1" stop-color="#ffa325"/>
    </linearGradient>
    <linearGradient id="r" x1="35.888" y1="16.613" x2="40.349" y2="16.613" gradientUnits="userSpaceOnUse">
      <stop stop-color="#8a7889"/>
      <stop offset="1" stop-color="#6e566e"/>
    </linearGradient>
    <linearGradient id="s" x1="35.465" y1="30.32" x2="42.194" y2="37.049" gradientUnits="userSpaceOnUse">
      <stop stop-color="#f8f6fb"/>
      <stop offset="1" stop-color="#efdcfb"/>
    </linearGradient>
    <linearGradient id="t" x1="38.81" y1="33.665" x2="34.844" y2="29.698" gradientUnits="userSpaceOnUse">
      <stop stop-color="#f8f6fb"/>
      <stop offset="1" stop-color="#efdcfb"/>
    </linearGradient>
    <clipPath id="a">
      <path fill="#fff" d="M0 0h100v100H0z"/>
    </clipPath>
  </defs>
</svg>
