<svg width="14" height="18" viewBox="0 0 14 18" fill="none" xmlns="http://www.w3.org/2000/svg">
<path fill-rule="evenodd" clip-rule="evenodd" d="M2.34332 0H8.36131L13.4618 5.31635V15.6567C13.4618 16.952 12.4138 18 11.1229 18H2.34332C1.04797 18 3.70166e-10 16.952 3.70166e-10 15.6567V2.34332C-2.27426e-05 1.04797 1.04795 0 2.34332 0Z" fill="#E5252A"/>
<path fill-rule="evenodd" clip-rule="evenodd" d="M8.35693 0V4.27586C8.35693 4.82815 8.80465 5.27586 9.35693 5.27586H13.4619L8.35693 0Z" fill="#BE2529"/>
<path d="M2.60425 13.4304V10.1426H4.00305C4.34938 10.1426 4.62375 10.237 4.83065 10.4304C5.03754 10.6193 5.141 10.8757 5.141 11.1951C5.141 11.5144 5.03754 11.7708 4.83065 11.9597C4.62375 12.1531 4.34938 12.2475 4.00305 12.2475H3.44533V13.4304H2.60425ZM3.44533 11.5324H3.9086C4.03453 11.5324 4.13348 11.5054 4.20096 11.4425C4.26842 11.384 4.30442 11.303 4.30442 11.1951C4.30442 11.0871 4.26844 11.0062 4.20096 10.9477C4.13351 10.8847 4.03455 10.8578 3.9086 10.8578H3.44533V11.5324ZM5.4873 13.4304V10.1426H6.65222C6.88161 10.1426 7.0975 10.1741 7.29989 10.2415C7.50228 10.309 7.68671 10.4035 7.84861 10.5339C8.01054 10.6598 8.14097 10.8307 8.23543 11.0466C8.32537 11.2625 8.37486 11.5099 8.37486 11.7888C8.37486 12.0631 8.3254 12.3105 8.23543 12.5264C8.14097 12.7423 8.01054 12.9132 7.84861 13.0391C7.68668 13.1695 7.50228 13.264 7.29989 13.3315C7.0975 13.3989 6.88161 13.4304 6.65222 13.4304H5.4873ZM6.31039 12.7153H6.55327C6.6837 12.7153 6.80514 12.7018 6.91758 12.6703C7.02552 12.6388 7.12898 12.5894 7.22794 12.5219C7.32239 12.4544 7.39885 12.36 7.45282 12.234C7.50679 12.1081 7.53378 11.9597 7.53378 11.7888C7.53378 11.6133 7.50679 11.4649 7.45282 11.339C7.39885 11.2131 7.32239 11.1186 7.22794 11.0511C7.12898 10.9837 7.02555 10.9342 6.91758 10.9027C6.80514 10.8712 6.6837 10.8577 6.55327 10.8577H6.31039V12.7153ZM8.79765 13.4304V10.1426H11.1365V10.8577H9.63873V11.384H10.8351V12.0946H9.63873V13.4304H8.79765Z" fill="white"/>
</svg>
