<svg width="14" height="18" viewBox="0 0 14 18" fill="none" xmlns="http://www.w3.org/2000/svg">
<path d="M13.0384 4.92991V16.8406C13.0384 17.482 12.5204 18 11.879 18H1.15936C0.518011 18 0 17.482 0 16.8406V1.15936C0 0.518011 0.518011 0 1.15936 0H8.10846L13.0384 4.92991Z" fill="#23A566"/>
<path d="M9.36999 8.96143H3.66835C3.46396 8.96143 3.29834 9.12705 3.29834 9.33143V14.2966C3.29834 14.501 3.46396 14.6666 3.66835 14.6666H9.37352C9.5779 14.6666 9.74352 14.501 9.74352 14.2966V9.33496C9.74 9.13057 9.57438 8.96143 9.36999 8.96143ZM4.03836 11.3436H6.14916V12.2844H4.03836V11.3436ZM6.88918 11.3436H8.99998V12.2844H6.88918V11.3436ZM8.99998 10.6036H6.88918V9.70497H8.99998V10.6036ZM6.14916 9.70497V10.6036H4.03836V9.70497H6.14916ZM4.03836 13.028H6.14916V13.9266H4.03836V13.028ZM6.88918 13.9266V13.028H8.99998V13.9266H6.88918Z" fill="white"/>
<path d="M8.771 4.75026L13.0384 8.20719V4.96169L10.6175 3.55566L8.771 4.75026Z" fill="black" fill-opacity="0.0980392"/>
<path d="M13.0386 4.92991H9.268C8.62665 4.92991 8.10864 4.4119 8.10864 3.77056V0L13.0386 4.92991Z" fill="#8ED1B1"/>
</svg>
